<svg width="60" height="60" viewBox="0 0 60 60" fill="none" xmlns="http://www.w3.org/2000/svg">
<rect width="60" height="60" rx="30" fill="#FFE0E1"/>
<path d="M36 34H35.42L34.61 33.19C35.5 32 36 30.5 36 29C36 25.13 32.87 22 29 22C27.5 22 26 22.5 24.79 23.4C21.7 25.72 21.07 30.11 23.39 33.2C25.71 36.29 30.1 36.92 33.19 34.6L34 35.41V36L39 41L41 39L36 34ZM29 34C26.24 34 24 31.76 24 29C24 26.24 26.24 24 29 24C31.76 24 34 26.24 34 29C34 31.76 31.76 34 29 34ZM21 24L19 26V19H26L24 21H21V24ZM39 19V26L37 24V21H34L32 19H39ZM24 37L26 39H19V32L21 34V37H24Z" fill="#FB2C36"/>
</svg>
