<svg width="60" height="60" viewBox="0 0 60 60" fill="none" xmlns="http://www.w3.org/2000/svg">
<rect width="60" height="60" rx="30" fill="#FFE0E1"/>
<g clip-path="url(#clip0_243_3190)">
<path d="M30 23C29.0717 23 28.1815 23.3687 27.5251 24.0251C26.8687 24.6815 26.5 25.5717 26.5 26.5C26.5 27.4283 26.8687 28.3185 27.5251 28.9749C28.1815 29.6313 29.0717 30 30 30C30.9283 30 31.8185 29.6313 32.4749 28.9749C33.1313 28.3185 33.5 27.4283 33.5 26.5C33.5 25.5717 33.1313 24.6815 32.4749 24.0251C31.8185 23.3687 30.9283 23 30 23ZM30 25C30.3978 25 30.7794 25.158 31.0607 25.4393C31.342 25.7206 31.5 26.1022 31.5 26.5C31.5 26.8978 31.342 27.2794 31.0607 27.5607C30.7794 27.842 30.3978 28 30 28C29.6022 28 29.2206 27.842 28.9393 27.5607C28.658 27.2794 28.5 26.8978 28.5 26.5C28.5 26.1022 28.658 25.7206 28.9393 25.4393C29.2206 25.158 29.6022 25 30 25ZM23.5 26C22.837 26 22.2011 26.2634 21.7322 26.7322C21.2634 27.2011 21 27.837 21 28.5C21 29.44 21.53 30.25 22.29 30.68C22.65 30.88 23.06 31 23.5 31C23.94 31 24.35 30.88 24.71 30.68C25.08 30.47 25.39 30.17 25.62 29.81C24.89 28.86 24.5 27.7 24.5 26.5C24.5 26.41 24.5 26.31 24.5 26.22C24.2 26.08 23.86 26 23.5 26ZM36.5 26C36.14 26 35.8 26.08 35.5 26.22C35.5 26.31 35.5 26.41 35.5 26.5C35.5 27.7 35.11 28.86 34.38 29.81C34.5 30 34.63 30.15 34.78 30.3C34.94 30.45 35.1 30.58 35.29 30.68C35.65 30.88 36.06 31 36.5 31C36.94 31 37.35 30.88 37.71 30.68C38.47 30.25 39 29.44 39 28.5C39 27.837 38.7366 27.2011 38.2678 26.7322C37.7989 26.2634 37.163 26 36.5 26ZM30 32C27.66 32 23 33.17 23 35.5V37H37V35.5C37 33.17 32.34 32 30 32ZM22.71 32.55C20.78 32.78 18 33.76 18 35.5V37H21V35.07C21 34.06 21.69 33.22 22.71 32.55ZM37.29 32.55C38.31 33.22 39 34.06 39 35.07V37H42V35.5C42 33.76 39.22 32.78 37.29 32.55ZM30 34C31.53 34 33.24 34.5 34.23 35H25.77C26.76 34.5 28.47 34 30 34Z" fill="#FB2C36"/>
</g>
<defs>
<clipPath id="clip0_243_3190">
<rect width="24" height="24" fill="white" transform="translate(18 18)"/>
</clipPath>
</defs>
</svg>
