<svg width="14" height="14" viewBox="0 0 14 14" fill="none" xmlns="http://www.w3.org/2000/svg">
<path d="M6.66667 12C5.25218 12 3.89562 11.4381 2.89543 10.4379C1.89524 9.43771 1.33333 8.08115 1.33333 6.66667C1.33333 5.25218 1.89524 3.89562 2.89543 2.89543C3.89562 1.89524 5.25218 1.33333 6.66667 1.33333C8.08115 1.33333 9.43771 1.89524 10.4379 2.89543C11.4381 3.89562 12 5.25218 12 6.66667C12 8.08115 11.4381 9.43771 10.4379 10.4379C9.43771 11.4381 8.08115 12 6.66667 12ZM6.66667 0C5.79119 0 4.92428 0.172438 4.11544 0.50747C3.30661 0.842501 2.57168 1.33356 1.95262 1.95262C0.702379 3.20286 0 4.89856 0 6.66667C0 8.43478 0.702379 10.1305 1.95262 11.3807C2.57168 11.9998 3.30661 12.4908 4.11544 12.8259C4.92428 13.1609 5.79119 13.3333 6.66667 13.3333C8.43478 13.3333 10.1305 12.631 11.3807 11.3807C12.631 10.1305 13.3333 8.43478 13.3333 6.66667C13.3333 5.79119 13.1609 4.92428 12.8259 4.11544C12.4908 3.30661 11.9998 2.57168 11.3807 1.95262C10.7617 1.33356 10.0267 0.842501 9.21789 0.50747C8.40905 0.172438 7.54215 0 6.66667 0ZM6.66667 3.33333C5.78261 3.33333 4.93476 3.68452 4.30964 4.30964C3.68452 4.93476 3.33333 5.78261 3.33333 6.66667C3.33333 7.55072 3.68452 8.39857 4.30964 9.02369C4.93476 9.64881 5.78261 10 6.66667 10C7.55072 10 8.39857 9.64881 9.02369 9.02369C9.64881 8.39857 10 7.55072 10 6.66667C10 5.78261 9.64881 4.93476 9.02369 4.30964C8.39857 3.68452 7.55072 3.33333 6.66667 3.33333Z" fill="#1A73E8"/>
</svg>
