<svg width="60" height="60" viewBox="0 0 60 60" fill="none" xmlns="http://www.w3.org/2000/svg">
<rect width="60" height="60" rx="30" fill="#FFE0E1"/>
<path d="M32 31V29L30 30L28 29V31L26 32L28 33V35L30 34L32 35V33L34 32M32 20H25C24.4696 20 23.9609 20.2107 23.5858 20.5858C23.2107 20.9609 23 21.4696 23 22V36C23 36.5304 23.2107 37.0391 23.5858 37.4142C23.9609 37.7893 24.4696 38 25 38H26V36H25V22H31V26H35V36H34V38H35C35.5304 38 36.0391 37.7893 36.4142 37.4142C36.7893 37.0391 37 36.5304 37 36V25M32 31V29L30 30L28 29V31L26 32L28 33V35L30 34L32 35V33L34 32M28 41L30 40L32 41V36H28M32 31V29L30 30L28 29V31L26 32L28 33V35L30 34L32 35V33L34 32L32 31Z" fill="#FB2C36"/>
</svg>
