<svg width="60" height="60" viewBox="0 0 60 60" fill="none" xmlns="http://www.w3.org/2000/svg">
<rect width="60" height="60" rx="30" fill="#E0F8E6"/>
<path d="M32 20H25C24.4696 20 23.9609 20.2107 23.5858 20.5858C23.2107 20.9609 23 21.4696 23 22V36C23 36.5304 23.2107 37.0391 23.5858 37.4142C23.9609 37.7893 24.4696 38 25 38H28V41L30 40L32 41V38H35C35.5304 38 36.0391 37.7893 36.4142 37.4142C36.7893 37.0391 37 36.5304 37 36V25M32 33V35L30 34L28 35V33L26 32L28 31V29L30 30L32 29V31L34 32M31 26V21.5L35.5 26H31Z" fill="#34A853"/>
</svg>
