<svg width="60" height="60" viewBox="0 0 60 60" fill="none" xmlns="http://www.w3.org/2000/svg">
<rect width="60" height="60" rx="30" fill="#FFE0E1"/>
<path d="M39 29C39 34.55 35.16 39.74 30 41C24.84 39.74 21 34.55 21 29V23L30 19L39 23V29ZM30 39C33.75 38 37 33.54 37 29.22V24.3L30 21.18L23 24.3V29.22C23 33.54 26.25 38 30 39ZM30 26.89C31.6 26.89 32.89 28.18 32.89 29.78C32.89 31.38 31.6 32.67 30 32.67C28.4 32.67 27.11 31.37 27.11 29.78C27.11 28.19 28.41 26.89 30 26.89ZM30 24L31.38 26C30.96 25.82 30.5 25.73 30 25.73C29.5 25.73 29.05 25.82 28.62 26L30 24ZM25 26.89L27.4 26.69C27.06 27 26.74 27.34 26.5 27.76C26.25 28.18 26.1 28.62 26 29.08L25 26.89ZM25 32.67L26.03 30.5C26.11 30.93 26.27 31.38 26.5 31.8C26.75 32.23 27.06 32.59 27.4 32.88L25 32.67ZM35 26.89L34 29.08C33.9 28.62 33.74 28.18 33.5 27.76C33.26 27.34 32.95 27 32.6 26.68L35 26.89ZM35 32.67L32.6 32.87C32.94 32.58 33.25 32.22 33.5 31.8C33.74 31.38 33.89 30.93 33.97 30.5L35 32.67ZM30 35.55L28.61 33.57C29.04 33.72 29.5 33.82 30 33.82C30.5 33.82 30.95 33.72 31.37 33.57L30 35.55Z" fill="#FB2C36"/>
</svg>
